G04*
G04 #@! TF.GenerationSoftware,Altium Limited,Altium Designer,22.7.1 (60)*
G04*
G04 Layer_Physical_Order=2*
G04 Layer_Color=16711680*
%FSLAX24Y24*%
%MOIN*%
G70*
G04*
G04 #@! TF.SameCoordinates,277468EA-A594-40E7-B2BE-35E06897B6AD*
G04*
G04*
G04 #@! TF.FilePolarity,Positive*
G04*
G01*
G75*
%ADD12C,0.0050*%
%ADD21R,0.0433X0.0413*%
%ADD32C,0.0150*%
%ADD33C,0.0626*%
%ADD34R,0.0626X0.0626*%
%ADD35R,0.0626X0.0626*%
%ADD36C,0.0200*%
%ADD37C,0.0300*%
G04:AMPARAMS|DCode=38|XSize=59mil|YSize=21mil|CornerRadius=5.3mil|HoleSize=0mil|Usage=FLASHONLY|Rotation=0.000|XOffset=0mil|YOffset=0mil|HoleType=Round|Shape=RoundedRectangle|*
%AMROUNDEDRECTD38*
21,1,0.0590,0.0105,0,0,0.0*
21,1,0.0485,0.0210,0,0,0.0*
1,1,0.0105,0.0243,-0.0053*
1,1,0.0105,-0.0243,-0.0053*
1,1,0.0105,-0.0243,0.0053*
1,1,0.0105,0.0243,0.0053*
%
%ADD38ROUNDEDRECTD38*%
G04:AMPARAMS|DCode=39|XSize=97.4mil|YSize=24.5mil|CornerRadius=12.2mil|HoleSize=0mil|Usage=FLASHONLY|Rotation=180.000|XOffset=0mil|YOffset=0mil|HoleType=Round|Shape=RoundedRectangle|*
%AMROUNDEDRECTD39*
21,1,0.0974,0.0000,0,0,180.0*
21,1,0.0729,0.0245,0,0,180.0*
1,1,0.0245,-0.0365,0.0000*
1,1,0.0245,0.0365,0.0000*
1,1,0.0245,0.0365,0.0000*
1,1,0.0245,-0.0365,0.0000*
%
%ADD39ROUNDEDRECTD39*%
%ADD40R,0.0974X0.0245*%
%ADD41R,0.0138X0.0148*%
%ADD42R,0.0148X0.0138*%
G36*
X10503Y14898D02*
X10586Y14886D01*
X10599Y14834D01*
X10562Y14778D01*
X10546Y14700D01*
X10562Y14622D01*
X10606Y14556D01*
X10623Y14545D01*
Y14472D01*
X10414D01*
Y14128D01*
X11488D01*
Y14173D01*
X11547D01*
X11738Y13982D01*
X11709Y13941D01*
X11650Y13953D01*
X11591Y13941D01*
X11542Y13908D01*
X11521Y13876D01*
X11472D01*
X11440Y13924D01*
X11383Y13962D01*
X11316Y13976D01*
X10587D01*
X10519Y13962D01*
X10462Y13924D01*
X10424Y13867D01*
X10411Y13800D01*
X10424Y13733D01*
X10462Y13676D01*
X10519Y13638D01*
X10587Y13624D01*
X11316D01*
X11383Y13638D01*
X11440Y13676D01*
X11472Y13724D01*
X11521D01*
X11542Y13692D01*
X11591Y13659D01*
X11650Y13647D01*
X11709Y13659D01*
X11758Y13692D01*
X11791Y13741D01*
X11803Y13800D01*
X11791Y13859D01*
X11832Y13888D01*
X12184Y13535D01*
X12226Y13508D01*
X12274Y13498D01*
X12483D01*
Y13369D01*
X12453Y13361D01*
Y13114D01*
X12750D01*
X13047D01*
Y13132D01*
X13093Y13151D01*
X13561Y12684D01*
Y11877D01*
X13290D01*
Y11484D01*
Y11091D01*
X13561D01*
Y10769D01*
X13513Y10753D01*
X13509Y10759D01*
X13433Y10817D01*
X13345Y10854D01*
X13250Y10866D01*
X13155Y10854D01*
X13067Y10817D01*
X12991Y10759D01*
X12933Y10683D01*
X12896Y10595D01*
X12884Y10500D01*
X12896Y10405D01*
X12933Y10317D01*
X12991Y10241D01*
X13067Y10183D01*
X13155Y10146D01*
X13250Y10134D01*
X13345Y10146D01*
X13433Y10183D01*
X13509Y10241D01*
X13513Y10247D01*
X13561Y10231D01*
Y9785D01*
X13513Y9769D01*
X13509Y9775D01*
X13433Y9833D01*
X13345Y9869D01*
X13250Y9882D01*
X13155Y9869D01*
X13067Y9833D01*
X12991Y9775D01*
X12933Y9699D01*
X12896Y9611D01*
X12884Y9516D01*
X12896Y9421D01*
X12933Y9333D01*
X12991Y9257D01*
X13067Y9199D01*
X13155Y9162D01*
X13250Y9150D01*
X13345Y9162D01*
X13433Y9199D01*
X13509Y9257D01*
X13513Y9262D01*
X13561Y9246D01*
Y9022D01*
X13400Y8862D01*
X13345Y8885D01*
X13250Y8898D01*
X13155Y8885D01*
X13067Y8849D01*
X12991Y8790D01*
X12933Y8715D01*
X12896Y8626D01*
X12884Y8532D01*
X12896Y8437D01*
X12933Y8348D01*
X12991Y8273D01*
X13067Y8214D01*
X13155Y8178D01*
X13250Y8165D01*
X13345Y8178D01*
X13433Y8214D01*
X13509Y8273D01*
X13567Y8348D01*
X13604Y8437D01*
X13616Y8532D01*
X13604Y8626D01*
X13581Y8682D01*
X13778Y8879D01*
X13806Y8921D01*
X13815Y8969D01*
Y12736D01*
X13806Y12785D01*
X13778Y12827D01*
X13021Y13584D01*
X13017Y13587D01*
Y13824D01*
X13067Y13849D01*
X13133Y13798D01*
X13441Y13522D01*
X13724Y13222D01*
X13981Y12898D01*
X14210Y12554D01*
X14409Y12193D01*
X14577Y11815D01*
X14713Y11425D01*
X14816Y11025D01*
X14885Y10618D01*
X14920Y10207D01*
Y9793D01*
X14885Y9382D01*
X14816Y8975D01*
X14713Y8575D01*
X14577Y8185D01*
X14409Y7807D01*
X14210Y7446D01*
X13981Y7102D01*
X13724Y6778D01*
X13441Y6478D01*
X13133Y6202D01*
X12804Y5952D01*
X12455Y5732D01*
X12088Y5541D01*
X11707Y5381D01*
X11314Y5255D01*
X10912Y5161D01*
X10503Y5102D01*
X10091Y5077D01*
X9678Y5086D01*
X9267Y5131D01*
X8862Y5209D01*
X8464Y5322D01*
X8078Y5467D01*
X7704Y5644D01*
X7347Y5852D01*
X7212Y5946D01*
X7212Y7000D01*
X7212Y7000D01*
X7206Y7031D01*
X7189Y7057D01*
X7057Y7189D01*
X7031Y7206D01*
X7000Y7212D01*
X5946D01*
X5862Y7332D01*
X5671Y7656D01*
X5505Y7993D01*
X5364Y8341D01*
X5251Y8700D01*
X5166Y9066D01*
X5109Y9437D01*
X5080Y9812D01*
Y10188D01*
X5109Y10563D01*
X5166Y10934D01*
X5251Y11300D01*
X5364Y11659D01*
X5505Y12007D01*
X5671Y12344D01*
X5862Y12668D01*
X5946Y12788D01*
X7000D01*
X7000Y12788D01*
X7031Y12794D01*
X7057Y12811D01*
X7189Y12943D01*
X7206Y12969D01*
X7212Y13000D01*
Y14054D01*
X7347Y14148D01*
X7704Y14356D01*
X8078Y14533D01*
X8464Y14678D01*
X8862Y14791D01*
X9267Y14869D01*
X9678Y14914D01*
X10091Y14923D01*
X10503Y14898D01*
D02*
G37*
G36*
X11314Y14745D02*
X11707Y14619D01*
X12088Y14459D01*
X12455Y14268D01*
X12804Y14048D01*
X12957Y13932D01*
X12940Y13882D01*
X12483D01*
Y13753D01*
X12327D01*
X11690Y14390D01*
X11649Y14418D01*
X11600Y14427D01*
X11488D01*
Y14472D01*
X10877D01*
Y14545D01*
X10894Y14556D01*
X10938Y14622D01*
X10954Y14700D01*
X10938Y14778D01*
X10936Y14782D01*
X10966Y14826D01*
X11314Y14745D01*
D02*
G37*
%LPC*%
G36*
X9413Y14506D02*
X9089D01*
Y14340D01*
X9612D01*
X9604Y14379D01*
X9559Y14446D01*
X9492Y14491D01*
X9413Y14506D01*
D02*
G37*
G36*
X9009D02*
X8684D01*
X8605Y14491D01*
X8538Y14446D01*
X8494Y14379D01*
X8486Y14340D01*
X9009D01*
Y14506D01*
D02*
G37*
G36*
X11316Y13476D02*
X10587D01*
X10519Y13462D01*
X10462Y13424D01*
X10424Y13367D01*
X10411Y13300D01*
X10424Y13233D01*
X10462Y13176D01*
X10519Y13138D01*
X10587Y13124D01*
X11316D01*
X11383Y13138D01*
X11440Y13176D01*
X11472Y13224D01*
X11521D01*
X11542Y13192D01*
X11591Y13159D01*
X11650Y13147D01*
X11709Y13159D01*
X11758Y13192D01*
X11791Y13241D01*
X11803Y13300D01*
X11791Y13359D01*
X11758Y13408D01*
X11709Y13441D01*
X11650Y13453D01*
X11591Y13441D01*
X11542Y13408D01*
X11521Y13376D01*
X11472D01*
X11440Y13424D01*
X11383Y13462D01*
X11316Y13476D01*
D02*
G37*
G36*
X13047Y13034D02*
X12790D01*
Y12788D01*
X13047D01*
Y13034D01*
D02*
G37*
G36*
X12710D02*
X12453D01*
Y12788D01*
X12710D01*
Y13034D01*
D02*
G37*
G36*
X11316Y12976D02*
X10587D01*
X10519Y12962D01*
X10462Y12924D01*
X10424Y12867D01*
X10411Y12800D01*
X10424Y12733D01*
X10462Y12676D01*
X10519Y12638D01*
X10587Y12624D01*
X11316D01*
X11383Y12638D01*
X11440Y12676D01*
X11478Y12733D01*
X11492Y12800D01*
X11478Y12867D01*
X11440Y12924D01*
X11383Y12962D01*
X11316Y12976D01*
D02*
G37*
G36*
X9612Y14260D02*
X9049D01*
X8486D01*
X8494Y14221D01*
X8538Y14154D01*
X8583Y14124D01*
X8568Y14074D01*
X8497D01*
X8468Y14068D01*
X8443Y14052D01*
X7896Y13504D01*
X7879Y13479D01*
X7874Y13450D01*
Y12732D01*
X7268Y12126D01*
X6550D01*
X6521Y12121D01*
X6496Y12104D01*
X6496Y12104D01*
X6096Y11704D01*
X6079Y11679D01*
X6074Y11650D01*
Y8200D01*
X6079Y8171D01*
X6096Y8146D01*
X6546Y7696D01*
X6571Y7679D01*
X6600Y7674D01*
X8218D01*
X8221Y7658D01*
X8244Y7624D01*
X8278Y7601D01*
X8317Y7593D01*
X8802D01*
X8842Y7601D01*
X8876Y7624D01*
X8899Y7658D01*
X8907Y7697D01*
Y7803D01*
X8899Y7842D01*
X8876Y7876D01*
X8842Y7899D01*
X8802Y7907D01*
X8317D01*
X8278Y7899D01*
X8244Y7876D01*
X8221Y7842D01*
X8218Y7826D01*
X6632D01*
X6385Y8073D01*
X6406Y8123D01*
X6710D01*
Y8476D01*
X6357D01*
Y8172D01*
X6307Y8151D01*
X6226Y8232D01*
Y11618D01*
X6582Y11974D01*
X7300D01*
X7329Y11979D01*
X7354Y11996D01*
X8004Y12646D01*
X8021Y12671D01*
X8024Y12685D01*
X8074Y12680D01*
Y12250D01*
X8079Y12221D01*
X8096Y12196D01*
X8296Y11996D01*
X8321Y11979D01*
X8350Y11974D01*
X8350Y11974D01*
X8544D01*
X8560Y11924D01*
X8528Y11876D01*
X8066D01*
X8066Y11876D01*
X8036Y11871D01*
X8012Y11854D01*
X6948Y10790D01*
X6933Y10801D01*
X6845Y10838D01*
X6750Y10850D01*
X6655Y10838D01*
X6567Y10801D01*
X6491Y10743D01*
X6433Y10667D01*
X6396Y10579D01*
X6384Y10484D01*
X6396Y10389D01*
X6433Y10301D01*
X6491Y10225D01*
X6567Y10167D01*
X6655Y10131D01*
X6750Y10118D01*
X6795Y10124D01*
X6819Y10077D01*
X6696Y9954D01*
X6679Y9929D01*
X6674Y9900D01*
Y9856D01*
X6655Y9854D01*
X6567Y9817D01*
X6491Y9759D01*
X6433Y9683D01*
X6396Y9595D01*
X6384Y9500D01*
X6396Y9405D01*
X6433Y9317D01*
X6491Y9241D01*
X6567Y9183D01*
X6655Y9146D01*
X6750Y9134D01*
X6845Y9146D01*
X6933Y9183D01*
X7009Y9241D01*
X7067Y9317D01*
X7104Y9405D01*
X7116Y9500D01*
X7104Y9595D01*
X7067Y9683D01*
X7009Y9759D01*
X6933Y9817D01*
X6871Y9843D01*
X6858Y9900D01*
X8182Y11224D01*
X8528D01*
X8560Y11176D01*
X8617Y11138D01*
X8684Y11124D01*
X9404D01*
X9419Y11101D01*
X9426Y11076D01*
X9246Y10895D01*
X9229Y10871D01*
X9224Y10841D01*
Y10053D01*
X9229Y10023D01*
X9246Y9999D01*
X9550Y9695D01*
X9575Y9678D01*
X9576Y9678D01*
Y9586D01*
X9676D01*
X9678Y9575D01*
X9695Y9550D01*
X11016Y8229D01*
X11041Y8212D01*
X11070Y8206D01*
X11099Y8170D01*
X11101Y8158D01*
X11124Y8124D01*
X11149Y8107D01*
X11157Y8071D01*
X11157Y8050D01*
X11016Y7909D01*
X10999Y7885D01*
X10994Y7855D01*
Y7645D01*
X10999Y7615D01*
X11016Y7591D01*
X11146Y7461D01*
Y7391D01*
X11124Y7376D01*
X11101Y7342D01*
X11093Y7303D01*
Y7197D01*
X11101Y7158D01*
X11124Y7124D01*
X11158Y7101D01*
X11198Y7093D01*
X11682D01*
X11722Y7101D01*
X11756Y7124D01*
X11779Y7158D01*
X11782Y7174D01*
X12183D01*
Y6969D01*
X12153Y6961D01*
Y6714D01*
X12450D01*
Y6634D01*
X12153D01*
Y6469D01*
X11223D01*
X10388Y7304D01*
X10363Y7321D01*
X10334Y7326D01*
X8902D01*
X8899Y7342D01*
X8876Y7376D01*
X8842Y7399D01*
X8802Y7407D01*
X8317D01*
X8278Y7399D01*
X8244Y7376D01*
X8221Y7342D01*
X8213Y7303D01*
Y7197D01*
X8221Y7158D01*
X8244Y7124D01*
X8278Y7101D01*
X8317Y7093D01*
X8802D01*
X8842Y7101D01*
X8876Y7124D01*
X8899Y7158D01*
X8902Y7174D01*
X10302D01*
X11113Y6363D01*
X11092Y6313D01*
X10637D01*
Y5587D01*
X11363D01*
X11363Y6313D01*
X11412Y6316D01*
X12698D01*
X12727Y6322D01*
X12752Y6339D01*
X12796Y6383D01*
X12796Y6383D01*
X12812Y6407D01*
X12818Y6437D01*
Y7565D01*
X12812Y7594D01*
X12796Y7619D01*
X12796Y7619D01*
X11831Y8584D01*
X11806Y8601D01*
X11802Y8601D01*
X11778Y8650D01*
X11778Y8656D01*
X11779Y8658D01*
X11787Y8698D01*
Y8802D01*
X11779Y8842D01*
X11762Y8868D01*
X11904Y9011D01*
X11921Y9035D01*
X11926Y9065D01*
Y11686D01*
X11921Y11716D01*
X11904Y11741D01*
X11822Y11822D01*
X11822Y11822D01*
X11488Y12157D01*
X11488Y12157D01*
X11469Y12219D01*
X11478Y12233D01*
X11492Y12300D01*
X11478Y12367D01*
X11440Y12424D01*
X11383Y12462D01*
X11316Y12476D01*
X10587D01*
X10519Y12462D01*
X10462Y12424D01*
X10424Y12367D01*
X10411Y12300D01*
X10424Y12233D01*
X10431Y12223D01*
X10407Y12179D01*
X10142D01*
X9578Y12744D01*
X9589Y12800D01*
X9576Y12867D01*
X9538Y12924D01*
X9481Y12962D01*
X9413Y12976D01*
X9094D01*
X9075Y13022D01*
X9102Y13048D01*
X9118Y13073D01*
X9124Y13103D01*
X9165Y13124D01*
X9413D01*
X9481Y13138D01*
X9538Y13176D01*
X9576Y13233D01*
X9589Y13300D01*
X9576Y13367D01*
X9538Y13424D01*
X9514Y13440D01*
X9507Y13504D01*
X9665Y13662D01*
X9665Y13662D01*
X9681Y13687D01*
X9687Y13716D01*
Y13882D01*
X9687Y13882D01*
X9681Y13911D01*
X9665Y13936D01*
X9549Y14052D01*
X9524Y14068D01*
X9522Y14069D01*
X9511Y14122D01*
X9559Y14154D01*
X9604Y14221D01*
X9612Y14260D01*
D02*
G37*
G36*
X13210Y11877D02*
X12857D01*
Y11524D01*
X13210D01*
Y11877D01*
D02*
G37*
G36*
X6750Y11835D02*
X6655Y11822D01*
X6567Y11786D01*
X6491Y11727D01*
X6433Y11652D01*
X6396Y11563D01*
X6384Y11468D01*
X6396Y11374D01*
X6433Y11285D01*
X6491Y11210D01*
X6567Y11151D01*
X6655Y11115D01*
X6750Y11102D01*
X6845Y11115D01*
X6933Y11151D01*
X7009Y11210D01*
X7067Y11285D01*
X7104Y11374D01*
X7116Y11468D01*
X7104Y11563D01*
X7067Y11652D01*
X7009Y11727D01*
X6933Y11786D01*
X6845Y11822D01*
X6750Y11835D01*
D02*
G37*
G36*
X13210Y11444D02*
X12857D01*
Y11091D01*
X13210D01*
Y11444D01*
D02*
G37*
G36*
X8802Y8938D02*
X8600D01*
Y8790D01*
X8938D01*
Y8802D01*
X8927Y8854D01*
X8898Y8898D01*
X8854Y8927D01*
X8802Y8938D01*
D02*
G37*
G36*
X8520D02*
X8317D01*
X8266Y8927D01*
X8222Y8898D01*
X8193Y8854D01*
X8182Y8802D01*
Y8790D01*
X8520D01*
Y8938D01*
D02*
G37*
G36*
X8938Y8710D02*
X8600D01*
Y8562D01*
X8802D01*
X8854Y8573D01*
X8898Y8602D01*
X8927Y8646D01*
X8938Y8698D01*
Y8710D01*
D02*
G37*
G36*
X8520D02*
X8182D01*
Y8698D01*
X8193Y8646D01*
X8222Y8602D01*
X8266Y8573D01*
X8317Y8562D01*
X8520D01*
Y8710D01*
D02*
G37*
G36*
X7143Y8909D02*
X6790D01*
Y8556D01*
X7143D01*
Y8909D01*
D02*
G37*
G36*
X6710D02*
X6357D01*
Y8556D01*
X6710D01*
Y8909D01*
D02*
G37*
G36*
X7143Y8476D02*
X6790D01*
Y8123D01*
X7143D01*
Y8476D01*
D02*
G37*
G36*
X8802Y8407D02*
X8317D01*
X8278Y8399D01*
X8244Y8376D01*
X8221Y8342D01*
X8213Y8303D01*
Y8198D01*
X8221Y8158D01*
X8244Y8124D01*
X8278Y8101D01*
X8317Y8093D01*
X8802D01*
X8842Y8101D01*
X8876Y8124D01*
X8899Y8158D01*
X8907Y8198D01*
Y8303D01*
X8899Y8342D01*
X8876Y8376D01*
X8842Y8399D01*
X8802Y8407D01*
D02*
G37*
G36*
X9040Y6341D02*
Y5990D01*
X9391D01*
X9383Y6053D01*
X9343Y6148D01*
X9280Y6230D01*
X9198Y6293D01*
X9103Y6333D01*
X9040Y6341D01*
D02*
G37*
G36*
X8960D02*
X8897Y6333D01*
X8802Y6293D01*
X8720Y6230D01*
X8657Y6148D01*
X8617Y6053D01*
X8609Y5990D01*
X8960D01*
Y6341D01*
D02*
G37*
G36*
X10000Y6316D02*
X9905Y6304D01*
X9817Y6267D01*
X9741Y6209D01*
X9683Y6133D01*
X9646Y6045D01*
X9634Y5950D01*
X9646Y5855D01*
X9683Y5767D01*
X9741Y5691D01*
X9817Y5633D01*
X9905Y5596D01*
X10000Y5584D01*
X10095Y5596D01*
X10183Y5633D01*
X10259Y5691D01*
X10317Y5767D01*
X10354Y5855D01*
X10366Y5950D01*
X10354Y6045D01*
X10317Y6133D01*
X10259Y6209D01*
X10183Y6267D01*
X10095Y6304D01*
X10000Y6316D01*
D02*
G37*
G36*
X9391Y5910D02*
X9040D01*
Y5559D01*
X9103Y5567D01*
X9198Y5607D01*
X9280Y5670D01*
X9343Y5752D01*
X9383Y5847D01*
X9391Y5910D01*
D02*
G37*
G36*
X8960D02*
X8609D01*
X8617Y5847D01*
X8657Y5752D01*
X8720Y5670D01*
X8802Y5607D01*
X8897Y5567D01*
X8960Y5559D01*
Y5910D01*
D02*
G37*
%LPD*%
G36*
X8684Y13624D02*
X9345D01*
X9365Y13578D01*
X9338Y13552D01*
X9322Y13527D01*
X9316Y13497D01*
Y13476D01*
X8684D01*
X8617Y13462D01*
X8560Y13424D01*
X8522Y13367D01*
X8508Y13300D01*
X8522Y13233D01*
X8560Y13176D01*
X8617Y13138D01*
X8684Y13124D01*
X8836D01*
X8862Y13074D01*
X8862Y13074D01*
X8602D01*
X8602Y13074D01*
X8573Y13068D01*
X8548Y13052D01*
X8433Y12936D01*
X8416Y12911D01*
X8410Y12882D01*
Y12718D01*
X8416Y12689D01*
X8433Y12664D01*
X8592Y12505D01*
X8585Y12441D01*
X8560Y12424D01*
X8528Y12376D01*
X8479D01*
X8458Y12408D01*
X8409Y12441D01*
X8350Y12453D01*
X8291Y12441D01*
X8276Y12431D01*
X8226Y12458D01*
Y13234D01*
X8628Y13635D01*
X8684Y13624D01*
D02*
G37*
G36*
X8560Y11676D02*
X8617Y11638D01*
X8684Y11624D01*
X9413D01*
X9481Y11638D01*
X9490Y11644D01*
X9534Y11620D01*
Y11480D01*
X9490Y11456D01*
X9481Y11462D01*
X9413Y11476D01*
X8684D01*
X8617Y11462D01*
X8560Y11424D01*
X8528Y11376D01*
X8150D01*
X8121Y11371D01*
X8096Y11354D01*
X7158Y10416D01*
X7110Y10439D01*
X7116Y10484D01*
X7104Y10579D01*
X7067Y10667D01*
X7056Y10682D01*
X8097Y11724D01*
X8528D01*
X8560Y11676D01*
D02*
G37*
G36*
X10015Y11948D02*
X10015Y11948D01*
X10040Y11932D01*
X10069Y11926D01*
X10399D01*
X10400Y11876D01*
X10400Y11876D01*
X10371Y11871D01*
X10346Y11854D01*
X10346Y11854D01*
X9733Y11242D01*
X9687Y11261D01*
Y11882D01*
X9687Y11882D01*
X9681Y11911D01*
X9665Y11936D01*
X9665Y11936D01*
X9505Y12095D01*
X9503Y12133D01*
X9509Y12156D01*
X9538Y12176D01*
X9576Y12233D01*
X9589Y12300D01*
X9588Y12305D01*
X9634Y12329D01*
X10015Y11948D01*
D02*
G37*
G36*
X10422Y11244D02*
X10424Y11233D01*
X10462Y11176D01*
X10519Y11138D01*
X10587Y11124D01*
X11316D01*
X11328Y11127D01*
X11674Y10781D01*
Y9877D01*
X11413Y9616D01*
X11367Y9635D01*
Y9981D01*
X11397Y9989D01*
Y10236D01*
X11100D01*
Y10276D01*
X11060D01*
Y10562D01*
X10803D01*
Y10533D01*
X10787Y10527D01*
X10753Y10525D01*
X10731Y10559D01*
X10593Y10696D01*
X10604Y10750D01*
X10588Y10828D01*
X10544Y10894D01*
X10478Y10938D01*
X10400Y10954D01*
X10322Y10938D01*
X10256Y10894D01*
X10212Y10828D01*
X10196Y10750D01*
X10212Y10672D01*
X10256Y10606D01*
X10322Y10562D01*
X10379Y10550D01*
X10435Y10494D01*
X10414Y10444D01*
X10340D01*
Y10295D01*
X10260D01*
Y10444D01*
X10247D01*
Y10454D01*
X10138D01*
Y10300D01*
X10058D01*
Y10454D01*
X9942D01*
Y10300D01*
X9862D01*
Y10454D01*
X9776D01*
Y10661D01*
X10374Y11259D01*
X10422Y11244D01*
D02*
G37*
G36*
X11774Y9695D02*
Y9096D01*
X11584Y8907D01*
X11198D01*
X11196Y8907D01*
X11146Y8947D01*
Y9133D01*
X11727Y9714D01*
X11774Y9695D01*
D02*
G37*
G36*
X10833Y9468D02*
X10894D01*
Y8638D01*
X10844Y8617D01*
X9931Y9530D01*
X9950Y9576D01*
X10217D01*
Y9586D01*
X10424D01*
Y9628D01*
X10833D01*
Y9468D01*
D02*
G37*
G36*
X12665Y7534D02*
Y7482D01*
X12183D01*
Y7326D01*
X11782D01*
X11779Y7342D01*
X11756Y7376D01*
X11722Y7399D01*
X11682Y7407D01*
X11299D01*
Y7492D01*
X11299Y7492D01*
X11293Y7521D01*
X11279Y7543D01*
X11284Y7565D01*
X11295Y7593D01*
X11682D01*
X11722Y7601D01*
X11756Y7624D01*
X11779Y7658D01*
X11787Y7697D01*
Y7803D01*
X11779Y7842D01*
X11756Y7876D01*
X11731Y7893D01*
X11723Y7929D01*
X11723Y7950D01*
X11864Y8091D01*
X11881Y8115D01*
X11886Y8145D01*
Y8247D01*
X11933Y8266D01*
X12665Y7534D01*
D02*
G37*
%LPC*%
G36*
X11450Y10727D02*
X11434D01*
X11385Y10718D01*
X11344Y10690D01*
X11216Y10562D01*
X11140D01*
Y10316D01*
X11397D01*
Y10382D01*
X11496Y10482D01*
X11499Y10482D01*
X11540Y10510D01*
X11568Y10551D01*
X11577Y10600D01*
X11568Y10649D01*
X11540Y10690D01*
X11499Y10718D01*
X11450Y10727D01*
D02*
G37*
%LPD*%
D12*
X9902Y10300D02*
X10098D01*
X10101Y10298D02*
X10298D01*
X10300Y10295D01*
X10098Y10300D02*
X10101Y10298D01*
X10300Y10098D02*
Y10295D01*
Y9902D02*
Y9955D01*
X7950Y12700D02*
Y13450D01*
X7300Y12050D02*
X7950Y12700D01*
Y13450D02*
X8497Y13997D01*
X6550Y12050D02*
X7300D01*
X6150Y11650D02*
X6550Y12050D01*
X8497Y13997D02*
X9495D01*
X6150Y8200D02*
Y11650D01*
X9495Y13997D02*
X9611Y13882D01*
X9392Y13497D02*
X9611Y13716D01*
Y13882D01*
X8150Y12250D02*
X8350Y12050D01*
X8150Y13266D02*
X8684Y13800D01*
X8150Y12250D02*
Y13266D01*
X8350Y12300D02*
X9049D01*
X11080Y9705D02*
X11100Y9724D01*
X10970Y9594D02*
X11080Y9705D01*
X10970Y8603D02*
Y9594D01*
Y8603D02*
X11143Y8430D01*
X11070Y9165D02*
X11750Y9845D01*
X11143Y8430D02*
X11735D01*
X11810Y8355D01*
X11070Y7645D02*
Y7855D01*
X12742Y6437D02*
Y7565D01*
X11070Y7645D02*
X11222Y7492D01*
Y7328D02*
Y7492D01*
X11070Y7855D02*
X11215Y8000D01*
X11222Y7328D02*
X11300Y7250D01*
X11440D01*
X11810Y8145D02*
Y8355D01*
X11215Y8000D02*
X11665D01*
X11070Y8645D02*
X11185Y8530D01*
X11665Y8000D02*
X11810Y8145D01*
X11777Y8530D02*
X12742Y7565D01*
X11185Y8530D02*
X11777D01*
X12698Y6393D02*
X12742Y6437D01*
X11191Y6393D02*
X12698D01*
X10334Y7250D02*
X11191Y6393D01*
X8560Y7250D02*
X10334D01*
X11070Y8645D02*
Y9165D01*
X11750Y9845D02*
Y10813D01*
X9749Y9604D02*
X11070Y8283D01*
X11407D01*
X11440Y8250D01*
X9749Y9604D02*
Y9661D01*
X9705Y9705D02*
X9749Y9661D01*
X11263Y11300D02*
X11750Y10813D01*
X11850Y9065D02*
Y11686D01*
X11768Y11768D02*
X11850Y11686D01*
X11535Y8750D02*
X11850Y9065D01*
X10505Y11497D02*
X11497D01*
X11768Y11768D01*
X11434Y12103D02*
X11768Y11768D01*
X10466Y11600D02*
X11395D01*
X11513Y11718D02*
Y11882D01*
X11395Y11600D02*
X11513Y11718D01*
X11440Y8750D02*
X11535D01*
X10951Y13800D02*
X11650D01*
X10951Y13300D02*
X11650D01*
X8350Y12050D02*
X9443D01*
X9611Y11882D01*
X9392Y13390D02*
Y13497D01*
X9302Y13300D02*
X9392Y13390D01*
X9049Y13300D02*
X9302D01*
X9656Y9749D02*
X9700Y9705D01*
X9611Y11152D02*
Y11882D01*
X9300Y10841D02*
X9611Y11152D01*
X9300Y10053D02*
Y10841D01*
X8684Y13800D02*
X9049D01*
X9300Y10053D02*
X9604Y9749D01*
X9656D01*
X6150Y8200D02*
X6600Y7750D01*
X8560D01*
X8708Y12497D02*
X9574D01*
X8487Y12718D02*
X8708Y12497D01*
X8487Y12882D02*
X8602Y12997D01*
X8487Y12718D02*
Y12882D01*
X8602Y12997D02*
X8942D01*
X10069Y12003D02*
X11392D01*
X9574Y12497D02*
X10069Y12003D01*
X8942Y12997D02*
X9047Y13103D01*
Y13299D02*
X9049Y13300D01*
X9047Y13103D02*
Y13299D01*
X9400Y10149D02*
X9604Y9945D01*
X9400Y10800D02*
X10400Y11800D01*
X9400Y10149D02*
Y10800D01*
X9413Y12800D02*
X10111Y12103D01*
X11434D01*
X9049Y12800D02*
X9413D01*
X12426Y7250D02*
X12450Y7226D01*
X11440Y7250D02*
X12426D01*
X10951Y11300D02*
X11263D01*
X8066Y11800D02*
X9049D01*
X8150Y11300D02*
X9049D01*
X9551Y10195D02*
Y10685D01*
X9700Y10692D02*
X10505Y11497D01*
X9700Y10295D02*
Y10692D01*
X9551Y10685D02*
X10466Y11600D01*
X11392Y12003D02*
X11513Y11882D01*
X9551Y10195D02*
X9604Y10142D01*
X9656D01*
X9700Y10098D01*
X10400Y11800D02*
X10951D01*
X9656Y9945D02*
X9700Y9902D01*
X9604Y9945D02*
X9656D01*
X6750Y9500D02*
Y9900D01*
X8150Y11300D01*
X6750Y10484D02*
X8066Y11800D01*
X10300Y9705D02*
X11080D01*
X10300D02*
Y9902D01*
D21*
X11100Y10276D02*
D03*
Y9724D02*
D03*
X12450Y6674D02*
D03*
Y7226D02*
D03*
X12750Y13074D02*
D03*
Y13626D02*
D03*
D32*
X11110Y10276D02*
X11434Y10600D01*
X11100Y10276D02*
X11110D01*
X11434Y10600D02*
X11450D01*
X10400Y10709D02*
Y10750D01*
Y10709D02*
X10641Y10469D01*
Y10135D02*
Y10469D01*
Y10135D02*
X10832Y9944D01*
X10871D01*
X11090Y9724D01*
X11100D01*
X12750Y13626D02*
X12882Y13494D01*
X12931D01*
X13688Y12736D01*
Y8969D02*
Y12736D01*
X13250Y8532D02*
X13688Y8969D01*
X11600Y14300D02*
X12274Y13626D01*
X12750D01*
X10797Y14300D02*
X11600D01*
X10750Y14347D02*
Y14700D01*
Y14347D02*
X10797Y14300D01*
D33*
X6750Y11468D02*
D03*
Y10484D02*
D03*
Y9500D02*
D03*
X9000Y5950D02*
D03*
X10000D02*
D03*
X13250Y8532D02*
D03*
Y9516D02*
D03*
Y10500D02*
D03*
D34*
X6750Y8516D02*
D03*
X13250Y11484D02*
D03*
D35*
X11000Y5950D02*
D03*
D36*
X8350Y12300D02*
D03*
X11650Y13800D02*
D03*
Y13300D02*
D03*
D37*
X11450Y10600D02*
D03*
X10400Y10750D02*
D03*
X10750Y14700D02*
D03*
D38*
X11440Y7250D02*
D03*
Y7750D02*
D03*
Y8250D02*
D03*
Y8750D02*
D03*
X8560D02*
D03*
Y8250D02*
D03*
Y7750D02*
D03*
Y7250D02*
D03*
D39*
X9049Y14300D02*
D03*
Y13800D02*
D03*
Y13300D02*
D03*
Y12800D02*
D03*
Y12300D02*
D03*
Y11800D02*
D03*
Y11300D02*
D03*
X10951D02*
D03*
Y11800D02*
D03*
Y12300D02*
D03*
Y12800D02*
D03*
Y13300D02*
D03*
Y13800D02*
D03*
D40*
Y14300D02*
D03*
D41*
X9902Y9700D02*
D03*
X10098D02*
D03*
Y10300D02*
D03*
X9902D02*
D03*
D42*
X10300Y9705D02*
D03*
Y9902D02*
D03*
Y10098D02*
D03*
Y10295D02*
D03*
X9700Y9705D02*
D03*
Y9902D02*
D03*
Y10098D02*
D03*
Y10295D02*
D03*
M02*
