G04*
G04 #@! TF.GenerationSoftware,Altium Limited,Altium Designer,22.7.1 (60)*
G04*
G04 Layer_Color=32896*
%FSLAX24Y24*%
%MOIN*%
G70*
G04*
G04 #@! TF.SameCoordinates,277468EA-A594-40E7-B2BE-35E06897B6AD*
G04*
G04*
G04 #@! TF.FilePolarity,Positive*
G04*
G01*
G75*
%ADD10C,0.0079*%
%ADD11C,0.0098*%
%ADD12C,0.0050*%
%ADD13C,0.0060*%
%ADD15C,0.0100*%
%ADD16C,0.0030*%
D10*
X10267Y11097D02*
Y14503D01*
X9733Y11097D02*
X10267D01*
X9733D02*
Y14503D01*
X10267D01*
X9469Y9469D02*
Y10532D01*
X10532D01*
Y9469D02*
Y10532D01*
X9469Y9469D02*
X10532D01*
D11*
X11684Y14300D02*
G03*
X11684Y14300I-49J0D01*
G01*
X9360Y9705D02*
G03*
X9360Y9705I-49J0D01*
G01*
D12*
X7500Y9500D02*
X8450D01*
X7500D02*
Y10450D01*
X7400Y10350D02*
X7500Y10450D01*
X7600Y10350D01*
X8350Y9400D02*
X8450Y9500D01*
X8350Y9600D02*
X8450Y9500D01*
D13*
X8890Y8981D02*
Y9110D01*
Y6890D02*
Y7019D01*
Y6890D02*
X11110D01*
Y8981D02*
Y9110D01*
X8890D02*
X11110D01*
Y6890D02*
Y7019D01*
D15*
X7400Y10900D02*
X7600Y10600D01*
Y10900D02*
X7400Y10600D01*
X8600Y9650D02*
Y9600D01*
X8700Y9500D01*
X8800Y9600D01*
Y9650D01*
X8700Y9500D02*
Y9350D01*
X10400Y7800D02*
Y8100D01*
X10300Y8000D01*
X10200Y8100D01*
Y7800D01*
X9900Y8100D02*
X10100D01*
Y7800D01*
X9900D01*
X10100Y7950D02*
X10000D01*
X9800Y7800D02*
Y8100D01*
X9700Y8000D01*
X9600Y8100D01*
Y7800D01*
X10250Y10650D02*
Y10950D01*
X10150Y10850D01*
X10050Y10950D01*
Y10650D01*
X9950D02*
Y10950D01*
X9800D01*
X9750Y10900D01*
Y10800D01*
X9800Y10750D01*
X9950D01*
X9300Y10200D02*
Y10400D01*
X9200Y10500D01*
X9100Y10400D01*
Y10200D01*
Y10350D01*
X9300D01*
X8800Y10450D02*
X8850Y10500D01*
X8950D01*
X9000Y10450D01*
Y10250D01*
X8950Y10200D01*
X8850D01*
X8800Y10250D01*
X8500Y10450D02*
X8550Y10500D01*
X8650D01*
X8700Y10450D01*
Y10250D01*
X8650Y10200D01*
X8550D01*
X8500Y10250D01*
X8200Y10500D02*
X8400D01*
Y10200D01*
X8200D01*
X8400Y10350D02*
X8300D01*
X8100Y10500D02*
Y10200D01*
X7900D01*
X11700Y10100D02*
X11750Y10150D01*
X11850D01*
X11900Y10100D01*
Y9900D01*
X11850Y9850D01*
X11750D01*
X11700Y9900D01*
X11600Y9850D02*
X11500D01*
X11550D01*
Y10150D01*
X11600Y10100D01*
X13150Y7050D02*
X13200Y7100D01*
X13300D01*
X13350Y7050D01*
Y6850D01*
X13300Y6800D01*
X13200D01*
X13150Y6850D01*
X12850Y6800D02*
X13050D01*
X12850Y7000D01*
Y7050D01*
X12900Y7100D01*
X13000D01*
X13050Y7050D01*
X12800Y12500D02*
X12850Y12550D01*
X12950D01*
X13000Y12500D01*
Y12300D01*
X12950Y12250D01*
X12850D01*
X12800Y12300D01*
X12500Y12550D02*
X12600Y12500D01*
X12700Y12400D01*
Y12300D01*
X12650Y12250D01*
X12550D01*
X12500Y12300D01*
Y12350D01*
X12550Y12400D01*
X12700D01*
D16*
X8965Y7220D02*
X9165Y7420D01*
X8965D02*
X9165Y7220D01*
X8965Y7320D02*
X9165D01*
X9065Y7420D02*
Y7220D01*
M02*
