G04*
G04 #@! TF.GenerationSoftware,Altium Limited,Altium Designer,22.7.1 (60)*
G04*
G04 Layer_Color=16711935*
%FSLAX24Y24*%
%MOIN*%
G70*
G04*
G04 #@! TF.SameCoordinates,277468EA-A594-40E7-B2BE-35E06897B6AD*
G04*
G04*
G04 #@! TF.FilePolarity,Negative*
G04*
G01*
G75*
%ADD26R,0.0492X0.0472*%
%ADD27C,0.0685*%
%ADD28R,0.0685X0.0685*%
%ADD29R,0.0685X0.0685*%
%ADD30C,0.0259*%
%ADD31C,0.0359*%
G04:AMPARAMS|DCode=39|XSize=97.4mil|YSize=24.5mil|CornerRadius=12.2mil|HoleSize=0mil|Usage=FLASHONLY|Rotation=180.000|XOffset=0mil|YOffset=0mil|HoleType=Round|Shape=RoundedRectangle|*
%AMROUNDEDRECTD39*
21,1,0.0974,0.0000,0,0,180.0*
21,1,0.0729,0.0245,0,0,180.0*
1,1,0.0245,-0.0365,0.0000*
1,1,0.0245,0.0365,0.0000*
1,1,0.0245,0.0365,0.0000*
1,1,0.0245,-0.0365,0.0000*
%
%ADD39ROUNDEDRECTD39*%
%ADD40R,0.0974X0.0245*%
%ADD41R,0.0138X0.0148*%
%ADD42R,0.0148X0.0138*%
G04:AMPARAMS|DCode=43|XSize=64.9mil|YSize=26.9mil|CornerRadius=8.2mil|HoleSize=0mil|Usage=FLASHONLY|Rotation=0.000|XOffset=0mil|YOffset=0mil|HoleType=Round|Shape=RoundedRectangle|*
%AMROUNDEDRECTD43*
21,1,0.0649,0.0105,0,0,0.0*
21,1,0.0485,0.0269,0,0,0.0*
1,1,0.0164,0.0243,-0.0053*
1,1,0.0164,-0.0243,-0.0053*
1,1,0.0164,-0.0243,0.0053*
1,1,0.0164,0.0243,0.0053*
%
%ADD43ROUNDEDRECTD43*%
D26*
X11100Y10276D02*
D03*
Y9724D02*
D03*
X12450Y6674D02*
D03*
Y7226D02*
D03*
X12750Y13074D02*
D03*
Y13626D02*
D03*
D27*
X6750Y11468D02*
D03*
Y10484D02*
D03*
Y9500D02*
D03*
X9000Y5950D02*
D03*
X10000D02*
D03*
X13250Y8532D02*
D03*
Y9516D02*
D03*
Y10500D02*
D03*
D28*
X6750Y8516D02*
D03*
X13250Y11484D02*
D03*
D29*
X11000Y5950D02*
D03*
D30*
X8350Y12300D02*
D03*
X11650Y13800D02*
D03*
Y13300D02*
D03*
D31*
X11450Y10600D02*
D03*
X10400Y10750D02*
D03*
X10750Y14700D02*
D03*
D39*
X9049Y14300D02*
D03*
Y13800D02*
D03*
Y13300D02*
D03*
Y12800D02*
D03*
Y12300D02*
D03*
Y11800D02*
D03*
Y11300D02*
D03*
X10951D02*
D03*
Y11800D02*
D03*
Y12300D02*
D03*
Y12800D02*
D03*
Y13300D02*
D03*
Y13800D02*
D03*
D40*
Y14300D02*
D03*
D41*
X9902Y9700D02*
D03*
X10098D02*
D03*
Y10300D02*
D03*
X9902D02*
D03*
D42*
X10300Y9705D02*
D03*
Y9902D02*
D03*
Y10098D02*
D03*
Y10295D02*
D03*
X9700Y9705D02*
D03*
Y9902D02*
D03*
Y10098D02*
D03*
Y10295D02*
D03*
D43*
X11440Y7250D02*
D03*
Y7750D02*
D03*
Y8250D02*
D03*
Y8750D02*
D03*
X8560D02*
D03*
Y8250D02*
D03*
Y7750D02*
D03*
Y7250D02*
D03*
M02*
