G04*
G04 #@! TF.GenerationSoftware,Altium Limited,Altium Designer,22.7.1 (60)*
G04*
G04 Layer_Color=65535*
%FSLAX24Y24*%
%MOIN*%
G70*
G04*
G04 #@! TF.SameCoordinates,277468EA-A594-40E7-B2BE-35E06897B6AD*
G04*
G04*
G04 #@! TF.FilePolarity,Positive*
G04*
G01*
G75*
%ADD10C,0.0079*%
%ADD11C,0.0098*%
%ADD12C,0.0050*%
%ADD13C,0.0060*%
%ADD14C,0.0047*%
%ADD15C,0.0100*%
%ADD16C,0.0030*%
D10*
X6789Y7311D02*
G03*
X6789Y7311I-39J0D01*
G01*
X13289Y12689D02*
G03*
X13289Y12689I-39J0D01*
G01*
X10610Y13291D02*
Y13409D01*
X9390Y13291D02*
Y13409D01*
X10610D01*
X9390Y13291D02*
X10610D01*
D11*
X10778Y13822D02*
G03*
X10778Y13822I-49J0D01*
G01*
D12*
X11750Y6250D02*
Y7200D01*
X11650Y7100D02*
X11750Y7200D01*
X11850Y7100D01*
X12600Y6150D02*
X12700Y6250D01*
X12600Y6350D02*
X12700Y6250D01*
X11750D02*
X12700D01*
X5825Y7551D02*
X8089D01*
X5825D02*
Y12433D01*
X8089D01*
Y7551D02*
Y12433D01*
X11911Y12449D02*
X14175D01*
Y7567D02*
Y12449D01*
X11911Y7567D02*
X14175D01*
X11911D02*
Y12449D01*
D13*
X10496Y12045D02*
X10604D01*
X10496Y11455D02*
X10604D01*
X9346Y7955D02*
X9454D01*
X9346Y8545D02*
X9454D01*
X11035Y10966D02*
Y11035D01*
X8965Y8965D02*
X11035D01*
Y9034D01*
X8965Y11035D02*
X11035D01*
X8965Y10966D02*
Y11035D01*
Y8965D02*
Y9034D01*
D14*
X8500Y6450D02*
X11500D01*
X8500Y5450D02*
Y6450D01*
Y5450D02*
X11500D01*
Y6450D01*
D15*
X12000Y7300D02*
X12200Y7000D01*
Y7300D02*
X12000Y7000D01*
X12550Y6800D02*
Y6750D01*
X12650Y6650D01*
X12750Y6750D01*
Y6800D01*
X12650Y6650D02*
Y6500D01*
X5300Y10000D02*
Y9900D01*
Y9950D01*
X5550D01*
X5600Y9900D01*
Y9850D01*
X5550Y9800D01*
X5600Y10100D02*
Y10200D01*
Y10150D01*
X5300D01*
X5350Y10100D01*
X8550Y11500D02*
X8250D01*
Y11650D01*
X8300Y11700D01*
X8400D01*
X8450Y11650D01*
Y11500D01*
Y11600D02*
X8550Y11700D01*
Y12000D02*
Y11800D01*
X8350Y12000D01*
X8300D01*
X8250Y11950D01*
Y11850D01*
X8300Y11800D01*
X11350Y12150D02*
X11650D01*
Y12000D01*
X11600Y11950D01*
X11500D01*
X11450Y12000D01*
Y12150D01*
X11650Y11700D02*
Y11800D01*
X11600Y11850D01*
X11400D01*
X11350Y11800D01*
Y11700D01*
X11400Y11650D01*
X11600D01*
X11650Y11700D01*
Y11550D02*
X11350D01*
X11450Y11450D01*
X11350Y11350D01*
X11650D01*
X11300Y8500D02*
X11600D01*
Y8350D01*
X11550Y8300D01*
X11450D01*
X11400Y8350D01*
Y8500D01*
Y8400D02*
X11300Y8300D01*
X11550Y8200D02*
X11600Y8150D01*
Y8050D01*
X11550Y8000D01*
X11500D01*
X11450Y8050D01*
Y8100D01*
Y8050D01*
X11400Y8000D01*
X11350D01*
X11300Y8050D01*
Y8150D01*
X11350Y8200D01*
X8300Y8150D02*
Y8050D01*
X8350Y8000D01*
X8550D01*
X8600Y8050D01*
Y8150D01*
X8550Y8200D01*
X8350D01*
X8300Y8150D01*
Y8300D02*
X8600D01*
X8500D01*
X8300Y8500D01*
X8450Y8350D01*
X8600Y8500D01*
X7450Y12900D02*
X7400Y12850D01*
Y12750D01*
X7450Y12700D01*
X7650D01*
X7700Y12750D01*
Y12850D01*
X7650Y12900D01*
X7450Y13000D02*
X7400Y13050D01*
Y13150D01*
X7450Y13200D01*
X7500D01*
X7550Y13150D01*
Y13100D01*
Y13150D01*
X7600Y13200D01*
X7650D01*
X7700Y13150D01*
Y13050D01*
X7650Y13000D01*
X10650Y7200D02*
Y7500D01*
X10800D01*
X10850Y7450D01*
Y7350D01*
X10800Y7300D01*
X10650D01*
X10750D02*
X10850Y7200D01*
X10950D02*
X11050D01*
X11000D01*
Y7500D01*
X10950Y7450D01*
X9450Y6600D02*
Y6900D01*
X9600D01*
X9650Y6850D01*
Y6750D01*
X9600Y6700D01*
X9450D01*
X9750Y6600D02*
Y6900D01*
X9900D01*
X9950Y6850D01*
Y6750D01*
X9900Y6700D01*
X9750D01*
X9850D02*
X9950Y6600D01*
X10200Y6900D02*
X10100D01*
X10050Y6850D01*
Y6650D01*
X10100Y6600D01*
X10200D01*
X10250Y6650D01*
Y6850D01*
X10200Y6900D01*
X10550Y6850D02*
X10500Y6900D01*
X10400D01*
X10350Y6850D01*
Y6650D01*
X10400Y6600D01*
X10500D01*
X10550Y6650D01*
Y6750D01*
X10450D01*
X9450Y14700D02*
Y14500D01*
X9550Y14400D01*
X9650Y14500D01*
Y14700D01*
X9750Y14400D02*
Y14700D01*
X9900D01*
X9950Y14650D01*
Y14550D01*
X9900Y14500D01*
X9750D01*
X9850D02*
X9950Y14400D01*
X10250Y14700D02*
X10050D01*
Y14400D01*
X10250D01*
X10050Y14550D02*
X10150D01*
X10550Y14650D02*
X10500Y14700D01*
X10400D01*
X10350Y14650D01*
Y14450D01*
X10400Y14400D01*
X10500D01*
X10550Y14450D01*
Y14550D01*
X10450D01*
X11200Y14400D02*
X11150Y14450D01*
X11050D01*
X11000Y14400D01*
Y14200D01*
X11050Y14150D01*
X11150D01*
X11200Y14200D01*
X11450Y14150D02*
Y14450D01*
X11300Y14300D01*
X11500D01*
X8750Y14450D02*
X8700Y14500D01*
X8600D01*
X8550Y14450D01*
Y14250D01*
X8600Y14200D01*
X8700D01*
X8750Y14250D01*
X9050Y14500D02*
X8850D01*
Y14350D01*
X8950Y14400D01*
X9000D01*
X9050Y14350D01*
Y14250D01*
X9000Y14200D01*
X8900D01*
X8850Y14250D01*
X9550Y10150D02*
Y9850D01*
X9750D01*
X10050Y10150D02*
X9850D01*
Y9850D01*
X10050D01*
X9850Y10000D02*
X9950D01*
X10150Y10150D02*
Y9850D01*
X10300D01*
X10350Y9900D01*
Y10100D01*
X10300Y10150D01*
X10150D01*
X14750Y10050D02*
Y10150D01*
Y10100D01*
X14500D01*
X14450Y10150D01*
Y10200D01*
X14500Y10250D01*
X14450Y9750D02*
Y9950D01*
X14650Y9750D01*
X14700D01*
X14750Y9800D01*
Y9900D01*
X14700Y9950D01*
D16*
X8800Y11150D02*
X9000Y10950D01*
X8800D02*
X9000Y11150D01*
X8800Y11050D02*
X9000D01*
X8900Y10950D02*
Y11150D01*
M02*
